<mxfile host="app.diagrams.net" modified="2023-05-11T08:59:23.949Z" agent="Mozilla/5.0 (Macintosh; Intel Mac OS X 10_15_7) AppleWebKit/537.36 (KHTML, like Gecko) Chrome/113.0.0.0 Safari/537.36" etag="Zkc8G1t9jPQkTv_DwXGy" version="21.2.9" type="github">
  <diagram name="第 1 页" id="B-tTFBU9TN1uPaQ3BuV3">
    <mxGraphModel dx="1434" dy="713" grid="1" gridSize="10" guides="1" tooltips="1" connect="1" arrows="1" fold="1" page="1" pageScale="1" pageWidth="1654" pageHeight="1169" math="0" shadow="0">
      <root>
        <mxCell id="0" />
        <mxCell id="1" parent="0" />
        <mxCell id="a_ANyHNUZicYniXFoQd0-3" value="ListDir" style="shape=umlLifeline;perimeter=lifelinePerimeter;whiteSpace=wrap;html=1;container=1;dropTarget=0;collapsible=0;recursiveResize=0;outlineConnect=0;portConstraint=eastwest;newEdgeStyle={&quot;edgeStyle&quot;:&quot;elbowEdgeStyle&quot;,&quot;elbow&quot;:&quot;vertical&quot;,&quot;curved&quot;:0,&quot;rounded&quot;:0};" parent="1" vertex="1">
          <mxGeometry x="151.5" y="1820" width="100" height="300" as="geometry" />
        </mxCell>
        <mxCell id="a_ANyHNUZicYniXFoQd0-4" value="FileChecker" style="shape=umlLifeline;perimeter=lifelinePerimeter;whiteSpace=wrap;html=1;container=1;dropTarget=0;collapsible=0;recursiveResize=0;outlineConnect=0;portConstraint=eastwest;newEdgeStyle={&quot;edgeStyle&quot;:&quot;elbowEdgeStyle&quot;,&quot;elbow&quot;:&quot;vertical&quot;,&quot;curved&quot;:0,&quot;rounded&quot;:0};" parent="1" vertex="1">
          <mxGeometry x="401.5" y="1820" width="100" height="300" as="geometry" />
        </mxCell>
        <mxCell id="a_ANyHNUZicYniXFoQd0-5" value="TransferQueue" style="shape=umlLifeline;perimeter=lifelinePerimeter;whiteSpace=wrap;html=1;container=1;dropTarget=0;collapsible=0;recursiveResize=0;outlineConnect=0;portConstraint=eastwest;newEdgeStyle={&quot;edgeStyle&quot;:&quot;elbowEdgeStyle&quot;,&quot;elbow&quot;:&quot;vertical&quot;,&quot;curved&quot;:0,&quot;rounded&quot;:0};" parent="1" vertex="1">
          <mxGeometry x="668.5" y="1820" width="100" height="300" as="geometry" />
        </mxCell>
        <mxCell id="rumRnAknzUMu9uTPhc-8-2" value="Local Store" style="shape=umlLifeline;perimeter=lifelinePerimeter;whiteSpace=wrap;html=1;container=1;dropTarget=0;collapsible=0;recursiveResize=0;outlineConnect=0;portConstraint=eastwest;newEdgeStyle={&quot;edgeStyle&quot;:&quot;elbowEdgeStyle&quot;,&quot;elbow&quot;:&quot;vertical&quot;,&quot;curved&quot;:0,&quot;rounded&quot;:0};" parent="1" vertex="1">
          <mxGeometry x="480" y="90" width="100" height="590" as="geometry" />
        </mxCell>
        <mxCell id="rumRnAknzUMu9uTPhc-8-10" value="" style="html=1;points=[];perimeter=orthogonalPerimeter;outlineConnect=0;targetShapes=umlLifeline;portConstraint=eastwest;newEdgeStyle={&quot;edgeStyle&quot;:&quot;elbowEdgeStyle&quot;,&quot;elbow&quot;:&quot;vertical&quot;,&quot;curved&quot;:0,&quot;rounded&quot;:0};" parent="rumRnAknzUMu9uTPhc-8-2" vertex="1">
          <mxGeometry x="45" y="100" width="10" height="80" as="geometry" />
        </mxCell>
        <mxCell id="rumRnAknzUMu9uTPhc-8-18" value="" style="html=1;points=[];perimeter=orthogonalPerimeter;outlineConnect=0;targetShapes=umlLifeline;portConstraint=eastwest;newEdgeStyle={&quot;edgeStyle&quot;:&quot;elbowEdgeStyle&quot;,&quot;elbow&quot;:&quot;vertical&quot;,&quot;curved&quot;:0,&quot;rounded&quot;:0};" parent="rumRnAknzUMu9uTPhc-8-2" vertex="1">
          <mxGeometry x="45" y="240" width="10" height="80" as="geometry" />
        </mxCell>
        <mxCell id="rumRnAknzUMu9uTPhc-8-30" value="" style="html=1;points=[];perimeter=orthogonalPerimeter;outlineConnect=0;targetShapes=umlLifeline;portConstraint=eastwest;newEdgeStyle={&quot;edgeStyle&quot;:&quot;elbowEdgeStyle&quot;,&quot;elbow&quot;:&quot;vertical&quot;,&quot;curved&quot;:0,&quot;rounded&quot;:0};" parent="rumRnAknzUMu9uTPhc-8-2" vertex="1">
          <mxGeometry x="45" y="370" width="10" height="160" as="geometry" />
        </mxCell>
        <mxCell id="rumRnAknzUMu9uTPhc-8-3" value="Remote Store" style="shape=umlLifeline;perimeter=lifelinePerimeter;whiteSpace=wrap;html=1;container=1;dropTarget=0;collapsible=0;recursiveResize=0;outlineConnect=0;portConstraint=eastwest;newEdgeStyle={&quot;edgeStyle&quot;:&quot;elbowEdgeStyle&quot;,&quot;elbow&quot;:&quot;vertical&quot;,&quot;curved&quot;:0,&quot;rounded&quot;:0};" parent="1" vertex="1">
          <mxGeometry x="720" y="90" width="100" height="590" as="geometry" />
        </mxCell>
        <mxCell id="rumRnAknzUMu9uTPhc-8-12" value="" style="html=1;points=[];perimeter=orthogonalPerimeter;outlineConnect=0;targetShapes=umlLifeline;portConstraint=eastwest;newEdgeStyle={&quot;edgeStyle&quot;:&quot;elbowEdgeStyle&quot;,&quot;elbow&quot;:&quot;vertical&quot;,&quot;curved&quot;:0,&quot;rounded&quot;:0};" parent="rumRnAknzUMu9uTPhc-8-3" vertex="1">
          <mxGeometry x="45" y="100" width="10" height="80" as="geometry" />
        </mxCell>
        <mxCell id="rumRnAknzUMu9uTPhc-8-21" value="" style="html=1;points=[];perimeter=orthogonalPerimeter;outlineConnect=0;targetShapes=umlLifeline;portConstraint=eastwest;newEdgeStyle={&quot;edgeStyle&quot;:&quot;elbowEdgeStyle&quot;,&quot;elbow&quot;:&quot;vertical&quot;,&quot;curved&quot;:0,&quot;rounded&quot;:0};" parent="rumRnAknzUMu9uTPhc-8-3" vertex="1">
          <mxGeometry x="45" y="240" width="10" height="300" as="geometry" />
        </mxCell>
        <mxCell id="rumRnAknzUMu9uTPhc-8-5" value="Client" style="shape=umlLifeline;perimeter=lifelinePerimeter;whiteSpace=wrap;html=1;container=1;dropTarget=0;collapsible=0;recursiveResize=0;outlineConnect=0;portConstraint=eastwest;newEdgeStyle={&quot;edgeStyle&quot;:&quot;elbowEdgeStyle&quot;,&quot;elbow&quot;:&quot;vertical&quot;,&quot;curved&quot;:0,&quot;rounded&quot;:0};" parent="1" vertex="1">
          <mxGeometry x="270" y="90" width="100" height="590" as="geometry" />
        </mxCell>
        <mxCell id="rumRnAknzUMu9uTPhc-8-9" value="" style="html=1;points=[];perimeter=orthogonalPerimeter;outlineConnect=0;targetShapes=umlLifeline;portConstraint=eastwest;newEdgeStyle={&quot;edgeStyle&quot;:&quot;elbowEdgeStyle&quot;,&quot;elbow&quot;:&quot;vertical&quot;,&quot;curved&quot;:0,&quot;rounded&quot;:0};" parent="rumRnAknzUMu9uTPhc-8-5" vertex="1">
          <mxGeometry x="45" y="100" width="10" height="80" as="geometry" />
        </mxCell>
        <mxCell id="rumRnAknzUMu9uTPhc-8-17" value="" style="html=1;points=[];perimeter=orthogonalPerimeter;outlineConnect=0;targetShapes=umlLifeline;portConstraint=eastwest;newEdgeStyle={&quot;edgeStyle&quot;:&quot;elbowEdgeStyle&quot;,&quot;elbow&quot;:&quot;vertical&quot;,&quot;curved&quot;:0,&quot;rounded&quot;:0};" parent="rumRnAknzUMu9uTPhc-8-5" vertex="1">
          <mxGeometry x="45" y="240" width="10" height="290" as="geometry" />
        </mxCell>
        <mxCell id="rumRnAknzUMu9uTPhc-8-6" value="" style="endArrow=open;endFill=1;endSize=12;html=1;rounded=0;" parent="1" edge="1">
          <mxGeometry width="160" relative="1" as="geometry">
            <mxPoint x="328" y="210" as="sourcePoint" />
            <mxPoint x="526" y="210" as="targetPoint" />
          </mxGeometry>
        </mxCell>
        <mxCell id="rumRnAknzUMu9uTPhc-8-7" value="上传" style="text;html=1;align=center;verticalAlign=middle;resizable=0;points=[];autosize=1;strokeColor=none;fillColor=none;" parent="1" vertex="1">
          <mxGeometry x="405" y="180" width="50" height="30" as="geometry" />
        </mxCell>
        <mxCell id="rumRnAknzUMu9uTPhc-8-8" value="首先传到本地" style="text;html=1;align=center;verticalAlign=middle;resizable=0;points=[];autosize=1;strokeColor=none;fillColor=none;" parent="1" vertex="1">
          <mxGeometry x="380" y="216" width="100" height="30" as="geometry" />
        </mxCell>
        <mxCell id="rumRnAknzUMu9uTPhc-8-13" value="" style="endArrow=open;endFill=1;endSize=12;html=1;rounded=0;" parent="1" edge="1">
          <mxGeometry width="160" relative="1" as="geometry">
            <mxPoint x="535" y="248" as="sourcePoint" />
            <mxPoint x="765" y="248" as="targetPoint" />
          </mxGeometry>
        </mxCell>
        <mxCell id="rumRnAknzUMu9uTPhc-8-15" value="同步local上的文件" style="text;html=1;align=center;verticalAlign=middle;resizable=0;points=[];autosize=1;strokeColor=none;fillColor=none;" parent="1" vertex="1">
          <mxGeometry x="595" y="216" width="120" height="30" as="geometry" />
        </mxCell>
        <mxCell id="rumRnAknzUMu9uTPhc-8-19" value="" style="endArrow=open;endFill=1;endSize=12;html=1;rounded=0;" parent="1" edge="1">
          <mxGeometry width="160" relative="1" as="geometry">
            <mxPoint x="326" y="350" as="sourcePoint" />
            <mxPoint x="525.5" y="350" as="targetPoint" />
          </mxGeometry>
        </mxCell>
        <mxCell id="rumRnAknzUMu9uTPhc-8-20" value="下载" style="text;html=1;align=center;verticalAlign=middle;resizable=0;points=[];autosize=1;strokeColor=none;fillColor=none;" parent="1" vertex="1">
          <mxGeometry x="400" y="320" width="50" height="30" as="geometry" />
        </mxCell>
        <mxCell id="rumRnAknzUMu9uTPhc-8-25" value="" style="endArrow=open;endFill=1;endSize=12;html=1;rounded=0;" parent="1" edge="1">
          <mxGeometry width="160" relative="1" as="geometry">
            <mxPoint x="535" y="364" as="sourcePoint" />
            <mxPoint x="764.5" y="364" as="targetPoint" />
          </mxGeometry>
        </mxCell>
        <mxCell id="rumRnAknzUMu9uTPhc-8-26" value="文件miss，向远端请求文件" style="text;html=1;align=center;verticalAlign=middle;resizable=0;points=[];autosize=1;strokeColor=none;fillColor=none;" parent="1" vertex="1">
          <mxGeometry x="560" y="330" width="170" height="30" as="geometry" />
        </mxCell>
        <mxCell id="rumRnAknzUMu9uTPhc-8-27" value="" style="endArrow=open;endFill=1;endSize=12;html=1;rounded=0;" parent="1" edge="1">
          <mxGeometry width="160" relative="1" as="geometry">
            <mxPoint x="765" y="442" as="sourcePoint" />
            <mxPoint x="326" y="442" as="targetPoint" />
          </mxGeometry>
        </mxCell>
        <mxCell id="rumRnAknzUMu9uTPhc-8-28" value="下发远端文件的签名" style="text;html=1;align=center;verticalAlign=middle;resizable=0;points=[];autosize=1;strokeColor=none;fillColor=none;" parent="1" vertex="1">
          <mxGeometry x="580" y="410" width="130" height="30" as="geometry" />
        </mxCell>
        <mxCell id="rumRnAknzUMu9uTPhc-8-31" value="" style="endArrow=open;endFill=1;endSize=12;html=1;rounded=0;" parent="1" source="rumRnAknzUMu9uTPhc-8-21" edge="1">
          <mxGeometry width="160" relative="1" as="geometry">
            <mxPoint x="759" y="510" as="sourcePoint" />
            <mxPoint x="534" y="510" as="targetPoint" />
          </mxGeometry>
        </mxCell>
        <mxCell id="rumRnAknzUMu9uTPhc-8-32" value="文件下载到本地存储" style="text;html=1;align=center;verticalAlign=middle;resizable=0;points=[];autosize=1;strokeColor=none;fillColor=none;" parent="1" vertex="1">
          <mxGeometry x="580" y="480" width="130" height="30" as="geometry" />
        </mxCell>
        <mxCell id="rumRnAknzUMu9uTPhc-8-33" value="" style="endArrow=open;endFill=1;endSize=12;html=1;rounded=0;" parent="1" edge="1">
          <mxGeometry width="160" relative="1" as="geometry">
            <mxPoint x="326" y="540" as="sourcePoint" />
            <mxPoint x="525.5" y="540" as="targetPoint" />
          </mxGeometry>
        </mxCell>
        <mxCell id="rumRnAknzUMu9uTPhc-8-34" value="再次下载" style="text;html=1;align=center;verticalAlign=middle;resizable=0;points=[];autosize=1;strokeColor=none;fillColor=none;" parent="1" vertex="1">
          <mxGeometry x="390" y="510" width="70" height="30" as="geometry" />
        </mxCell>
        <mxCell id="rumRnAknzUMu9uTPhc-8-36" value="" style="endArrow=open;endFill=1;endSize=12;html=1;rounded=0;" parent="1" source="rumRnAknzUMu9uTPhc-8-30" edge="1">
          <mxGeometry width="160" relative="1" as="geometry">
            <mxPoint x="520" y="580" as="sourcePoint" />
            <mxPoint x="330" y="580" as="targetPoint" />
          </mxGeometry>
        </mxCell>
        <mxCell id="rumRnAknzUMu9uTPhc-8-37" value="下发本地文件签名" style="text;html=1;align=center;verticalAlign=middle;resizable=0;points=[];autosize=1;strokeColor=none;fillColor=none;" parent="1" vertex="1">
          <mxGeometry x="365" y="550" width="120" height="30" as="geometry" />
        </mxCell>
        <mxCell id="rumRnAknzUMu9uTPhc-8-52" value="FileStat状态机" style="text;html=1;strokeColor=none;fillColor=none;align=center;verticalAlign=middle;whiteSpace=wrap;rounded=0;" parent="1" vertex="1">
          <mxGeometry x="130" y="690" width="120" height="40" as="geometry" />
        </mxCell>
        <mxCell id="rumRnAknzUMu9uTPhc-8-67" value="同步时序图" style="text;html=1;strokeColor=none;fillColor=none;align=center;verticalAlign=middle;whiteSpace=wrap;rounded=0;" parent="1" vertex="1">
          <mxGeometry x="141.5" y="1740" width="120" height="40" as="geometry" />
        </mxCell>
        <mxCell id="rumRnAknzUMu9uTPhc-8-75" style="edgeStyle=orthogonalEdgeStyle;rounded=0;orthogonalLoop=1;jettySize=auto;html=1;exitX=1;exitY=0.5;exitDx=0;exitDy=0;curved=1;entryX=0.5;entryY=0;entryDx=0;entryDy=0;fillColor=#e3c800;strokeColor=#B09500;" parent="1" source="rumRnAknzUMu9uTPhc-8-38" target="rumRnAknzUMu9uTPhc-8-38" edge="1">
          <mxGeometry relative="1" as="geometry">
            <mxPoint x="470" y="880" as="targetPoint" />
            <Array as="points">
              <mxPoint x="550" y="930" />
              <mxPoint x="550" y="860" />
              <mxPoint x="470" y="860" />
            </Array>
          </mxGeometry>
        </mxCell>
        <mxCell id="rumRnAknzUMu9uTPhc-8-38" value="&lt;font style=&quot;font-size: 15px;&quot;&gt;&lt;b&gt;仅本地&lt;/b&gt;&lt;/font&gt;&lt;br&gt;仅存在于本地，未同步至远端" style="ellipse;whiteSpace=wrap;html=1;fillColor=#1ba1e2;fontColor=#ffffff;strokeColor=#006EAF;" parent="1" vertex="1">
          <mxGeometry x="410" y="890" width="120" height="80" as="geometry" />
        </mxCell>
        <mxCell id="rumRnAknzUMu9uTPhc-8-39" value="&lt;font style=&quot;font-size: 15px;&quot;&gt;&lt;b&gt;仅远端&lt;/b&gt;&lt;/font&gt;&lt;br&gt;仅存在于远端" style="ellipse;whiteSpace=wrap;html=1;fillColor=#1ba1e2;fontColor=#ffffff;strokeColor=#006EAF;" parent="1" vertex="1">
          <mxGeometry x="630" y="890" width="120" height="80" as="geometry" />
        </mxCell>
        <mxCell id="rumRnAknzUMu9uTPhc-8-47" style="edgeStyle=orthogonalEdgeStyle;rounded=0;orthogonalLoop=1;jettySize=auto;html=1;exitX=1;exitY=0.5;exitDx=0;exitDy=0;entryX=0.5;entryY=1;entryDx=0;entryDy=0;curved=1;" parent="1" source="rumRnAknzUMu9uTPhc-8-40" target="rumRnAknzUMu9uTPhc-8-39" edge="1">
          <mxGeometry relative="1" as="geometry" />
        </mxCell>
        <mxCell id="5nYt6S0yfzJQ5EH9K08k-4" style="edgeStyle=orthogonalEdgeStyle;rounded=0;orthogonalLoop=1;jettySize=auto;html=1;exitX=0;exitY=1;exitDx=0;exitDy=0;curved=1;" edge="1" parent="1" source="rumRnAknzUMu9uTPhc-8-40" target="rumRnAknzUMu9uTPhc-8-89">
          <mxGeometry relative="1" as="geometry" />
        </mxCell>
        <mxCell id="5nYt6S0yfzJQ5EH9K08k-6" style="edgeStyle=orthogonalEdgeStyle;rounded=0;orthogonalLoop=1;jettySize=auto;html=1;exitX=0.5;exitY=1;exitDx=0;exitDy=0;entryX=0;entryY=0.5;entryDx=0;entryDy=0;curved=1;" edge="1" parent="1" source="rumRnAknzUMu9uTPhc-8-40" target="rumRnAknzUMu9uTPhc-8-88">
          <mxGeometry relative="1" as="geometry">
            <Array as="points">
              <mxPoint x="540" y="1110" />
              <mxPoint x="540" y="1220" />
            </Array>
          </mxGeometry>
        </mxCell>
        <mxCell id="rumRnAknzUMu9uTPhc-8-40" value="&lt;font style=&quot;font-size: 15px;&quot;&gt;&lt;b&gt;已同步&lt;/b&gt;&lt;/font&gt;&lt;br&gt;存在于本地及远端" style="ellipse;whiteSpace=wrap;html=1;fillColor=#1ba1e2;fontColor=#ffffff;strokeColor=#006EAF;" parent="1" vertex="1">
          <mxGeometry x="515" y="1030" width="120" height="80" as="geometry" />
        </mxCell>
        <mxCell id="rumRnAknzUMu9uTPhc-8-44" style="edgeStyle=orthogonalEdgeStyle;rounded=0;orthogonalLoop=1;jettySize=auto;html=1;exitX=0.5;exitY=1;exitDx=0;exitDy=0;entryX=0;entryY=0.5;entryDx=0;entryDy=0;curved=1;strokeColor=#B20000;" parent="1" source="rumRnAknzUMu9uTPhc-8-38" target="rumRnAknzUMu9uTPhc-8-40" edge="1">
          <mxGeometry relative="1" as="geometry" />
        </mxCell>
        <mxCell id="rumRnAknzUMu9uTPhc-8-46" value="本地同步至远端" style="text;html=1;strokeColor=none;fillColor=none;align=center;verticalAlign=middle;whiteSpace=wrap;rounded=0;" parent="1" vertex="1">
          <mxGeometry x="480" y="1010" width="60" height="30" as="geometry" />
        </mxCell>
        <mxCell id="rumRnAknzUMu9uTPhc-8-48" value="LRU淘汰" style="text;html=1;strokeColor=none;fillColor=none;align=center;verticalAlign=middle;whiteSpace=wrap;rounded=0;" parent="1" vertex="1">
          <mxGeometry x="690" y="1030" width="60" height="30" as="geometry" />
        </mxCell>
        <mxCell id="rumRnAknzUMu9uTPhc-8-76" value="发生访问，增加访问计数" style="text;html=1;strokeColor=none;fillColor=none;align=center;verticalAlign=middle;whiteSpace=wrap;rounded=0;" parent="1" vertex="1">
          <mxGeometry x="545" y="860" width="60" height="30" as="geometry" />
        </mxCell>
        <mxCell id="rumRnAknzUMu9uTPhc-8-83" style="edgeStyle=orthogonalEdgeStyle;rounded=0;orthogonalLoop=1;jettySize=auto;html=1;exitX=0;exitY=0.5;exitDx=0;exitDy=0;entryX=0.5;entryY=0;entryDx=0;entryDy=0;curved=1;fillColor=#e3c800;strokeColor=#B09500;" parent="1" source="rumRnAknzUMu9uTPhc-8-39" target="rumRnAknzUMu9uTPhc-8-40" edge="1">
          <mxGeometry relative="1" as="geometry" />
        </mxCell>
        <mxCell id="rumRnAknzUMu9uTPhc-8-78" style="edgeStyle=orthogonalEdgeStyle;rounded=0;orthogonalLoop=1;jettySize=auto;html=1;exitX=0.5;exitY=1;exitDx=0;exitDy=0;entryX=1;entryY=1;entryDx=0;entryDy=0;curved=1;fillColor=#e3c800;strokeColor=#B09500;" parent="1" source="rumRnAknzUMu9uTPhc-8-40" target="rumRnAknzUMu9uTPhc-8-40" edge="1">
          <mxGeometry relative="1" as="geometry" />
        </mxCell>
        <mxCell id="rumRnAknzUMu9uTPhc-8-79" value="发生访问，增加访问计数" style="text;html=1;strokeColor=none;fillColor=none;align=center;verticalAlign=middle;whiteSpace=wrap;rounded=0;" parent="1" vertex="1">
          <mxGeometry x="605" y="1120" width="60" height="30" as="geometry" />
        </mxCell>
        <mxCell id="rumRnAknzUMu9uTPhc-8-84" value="远端同步到本地" style="text;html=1;strokeColor=none;fillColor=none;align=center;verticalAlign=middle;whiteSpace=wrap;rounded=0;" parent="1" vertex="1">
          <mxGeometry x="580" y="980" width="60" height="30" as="geometry" />
        </mxCell>
        <mxCell id="5nYt6S0yfzJQ5EH9K08k-9" style="edgeStyle=orthogonalEdgeStyle;rounded=0;orthogonalLoop=1;jettySize=auto;html=1;exitX=0.5;exitY=1;exitDx=0;exitDy=0;entryX=1;entryY=0.5;entryDx=0;entryDy=0;curved=1;" edge="1" parent="1" source="rumRnAknzUMu9uTPhc-8-88" target="rumRnAknzUMu9uTPhc-8-97">
          <mxGeometry relative="1" as="geometry" />
        </mxCell>
        <mxCell id="5nYt6S0yfzJQ5EH9K08k-17" style="edgeStyle=orthogonalEdgeStyle;rounded=0;orthogonalLoop=1;jettySize=auto;html=1;exitX=0.5;exitY=0;exitDx=0;exitDy=0;entryX=1;entryY=0.5;entryDx=0;entryDy=0;curved=1;" edge="1" parent="1" source="rumRnAknzUMu9uTPhc-8-88" target="rumRnAknzUMu9uTPhc-8-40">
          <mxGeometry relative="1" as="geometry" />
        </mxCell>
        <mxCell id="rumRnAknzUMu9uTPhc-8-88" value="&lt;font style=&quot;border-color: var(--border-color); font-size: 15px;&quot;&gt;&lt;b style=&quot;border-color: var(--border-color);&quot;&gt;远端修改&lt;/b&gt;&lt;/font&gt;&lt;br style=&quot;border-color: var(--border-color);&quot;&gt;两端都有文件，文件仅在远端发生修改" style="ellipse;whiteSpace=wrap;html=1;fillColor=#1ba1e2;fontColor=#ffffff;strokeColor=#006EAF;" parent="1" vertex="1">
          <mxGeometry x="640" y="1180" width="120" height="80" as="geometry" />
        </mxCell>
        <mxCell id="5nYt6S0yfzJQ5EH9K08k-8" style="edgeStyle=orthogonalEdgeStyle;rounded=0;orthogonalLoop=1;jettySize=auto;html=1;exitX=0.5;exitY=1;exitDx=0;exitDy=0;entryX=0;entryY=0.5;entryDx=0;entryDy=0;curved=1;" edge="1" parent="1" source="rumRnAknzUMu9uTPhc-8-89" target="rumRnAknzUMu9uTPhc-8-97">
          <mxGeometry relative="1" as="geometry">
            <Array as="points">
              <mxPoint x="380" y="1230" />
              <mxPoint x="380" y="1330" />
            </Array>
          </mxGeometry>
        </mxCell>
        <mxCell id="5nYt6S0yfzJQ5EH9K08k-12" style="edgeStyle=orthogonalEdgeStyle;rounded=0;orthogonalLoop=1;jettySize=auto;html=1;exitX=1;exitY=0;exitDx=0;exitDy=0;entryX=0;entryY=1;entryDx=0;entryDy=0;curved=1;" edge="1" parent="1" source="rumRnAknzUMu9uTPhc-8-89" target="rumRnAknzUMu9uTPhc-8-40">
          <mxGeometry relative="1" as="geometry" />
        </mxCell>
        <mxCell id="rumRnAknzUMu9uTPhc-8-89" value="&lt;font style=&quot;border-color: var(--border-color); font-size: 15px;&quot;&gt;&lt;b style=&quot;border-color: var(--border-color);&quot;&gt;本地修改&lt;/b&gt;&lt;/font&gt;&lt;br style=&quot;border-color: var(--border-color);&quot;&gt;两端都有文件，文件仅在本地发生修改" style="ellipse;whiteSpace=wrap;html=1;fillColor=#1ba1e2;fontColor=#ffffff;strokeColor=#006EAF;" parent="1" vertex="1">
          <mxGeometry x="350" y="1150" width="120" height="80" as="geometry" />
        </mxCell>
        <mxCell id="5nYt6S0yfzJQ5EH9K08k-15" style="edgeStyle=orthogonalEdgeStyle;rounded=0;orthogonalLoop=1;jettySize=auto;html=1;exitX=0.5;exitY=0;exitDx=0;exitDy=0;entryX=0;entryY=1;entryDx=0;entryDy=0;curved=1;" edge="1" parent="1" source="rumRnAknzUMu9uTPhc-8-97" target="rumRnAknzUMu9uTPhc-8-40">
          <mxGeometry relative="1" as="geometry">
            <Array as="points">
              <mxPoint x="490" y="1200" />
              <mxPoint x="533" y="1200" />
            </Array>
          </mxGeometry>
        </mxCell>
        <mxCell id="rumRnAknzUMu9uTPhc-8-97" value="&lt;font style=&quot;border-color: var(--border-color); font-size: 15px;&quot;&gt;&lt;b style=&quot;border-color: var(--border-color);&quot;&gt;双端修改&lt;/b&gt;&lt;/font&gt;&lt;br style=&quot;border-color: var(--border-color);&quot;&gt;两端都有文件，两端都发生了文件修改" style="ellipse;whiteSpace=wrap;html=1;fillColor=#1ba1e2;fontColor=#ffffff;strokeColor=#006EAF;" parent="1" vertex="1">
          <mxGeometry x="430" y="1290" width="120" height="80" as="geometry" />
        </mxCell>
        <mxCell id="5nYt6S0yfzJQ5EH9K08k-2" style="edgeStyle=orthogonalEdgeStyle;rounded=0;orthogonalLoop=1;jettySize=auto;html=1;exitX=1;exitY=0.5;exitDx=0;exitDy=0;entryX=0;entryY=0;entryDx=0;entryDy=0;curved=1;" edge="1" parent="1" source="rumRnAknzUMu9uTPhc-8-38" target="rumRnAknzUMu9uTPhc-8-38">
          <mxGeometry relative="1" as="geometry">
            <Array as="points">
              <mxPoint x="630" y="930" />
              <mxPoint x="630" y="800" />
              <mxPoint x="428" y="800" />
            </Array>
          </mxGeometry>
        </mxCell>
        <mxCell id="5nYt6S0yfzJQ5EH9K08k-3" value="未同步发生修改，状态不变" style="text;html=1;strokeColor=none;fillColor=none;align=center;verticalAlign=middle;whiteSpace=wrap;rounded=0;" vertex="1" parent="1">
          <mxGeometry x="625" y="800" width="60" height="30" as="geometry" />
        </mxCell>
        <mxCell id="5nYt6S0yfzJQ5EH9K08k-5" value="本地产生了修改" style="text;html=1;strokeColor=none;fillColor=none;align=center;verticalAlign=middle;whiteSpace=wrap;rounded=0;" vertex="1" parent="1">
          <mxGeometry x="365" y="1080" width="60" height="30" as="geometry" />
        </mxCell>
        <mxCell id="5nYt6S0yfzJQ5EH9K08k-7" value="远端发生了修改" style="text;html=1;strokeColor=none;fillColor=none;align=center;verticalAlign=middle;whiteSpace=wrap;rounded=0;" vertex="1" parent="1">
          <mxGeometry x="560" y="1175" width="60" height="30" as="geometry" />
        </mxCell>
        <mxCell id="5nYt6S0yfzJQ5EH9K08k-10" value="远端发生了修改" style="text;html=1;strokeColor=none;fillColor=none;align=center;verticalAlign=middle;whiteSpace=wrap;rounded=0;" vertex="1" parent="1">
          <mxGeometry x="320" y="1280" width="60" height="30" as="geometry" />
        </mxCell>
        <mxCell id="5nYt6S0yfzJQ5EH9K08k-11" value="本地产生修改" style="text;html=1;strokeColor=none;fillColor=none;align=center;verticalAlign=middle;whiteSpace=wrap;rounded=0;" vertex="1" parent="1">
          <mxGeometry x="680" y="1300" width="60" height="30" as="geometry" />
        </mxCell>
        <mxCell id="5nYt6S0yfzJQ5EH9K08k-14" value="同步至远端" style="text;html=1;strokeColor=none;fillColor=none;align=center;verticalAlign=middle;whiteSpace=wrap;rounded=0;" vertex="1" parent="1">
          <mxGeometry x="450" y="1120" width="60" height="30" as="geometry" />
        </mxCell>
        <mxCell id="5nYt6S0yfzJQ5EH9K08k-16" value="使用最新一份文件同步" style="text;html=1;strokeColor=none;fillColor=none;align=center;verticalAlign=middle;whiteSpace=wrap;rounded=0;" vertex="1" parent="1">
          <mxGeometry x="500" y="1260" width="90" height="30" as="geometry" />
        </mxCell>
        <mxCell id="5nYt6S0yfzJQ5EH9K08k-19" style="edgeStyle=orthogonalEdgeStyle;rounded=0;orthogonalLoop=1;jettySize=auto;html=1;exitX=1;exitY=0.5;exitDx=0;exitDy=0;entryX=0.5;entryY=0;entryDx=0;entryDy=0;curved=1;" edge="1" parent="1" source="rumRnAknzUMu9uTPhc-8-39" target="rumRnAknzUMu9uTPhc-8-39">
          <mxGeometry relative="1" as="geometry">
            <Array as="points">
              <mxPoint x="770" y="930" />
              <mxPoint x="770" y="870" />
              <mxPoint x="690" y="870" />
            </Array>
          </mxGeometry>
        </mxCell>
        <mxCell id="5nYt6S0yfzJQ5EH9K08k-20" value="未同步发生修改，状态不变" style="text;html=1;strokeColor=none;fillColor=none;align=center;verticalAlign=middle;whiteSpace=wrap;rounded=0;" vertex="1" parent="1">
          <mxGeometry x="767" y="860" width="60" height="30" as="geometry" />
        </mxCell>
        <mxCell id="5nYt6S0yfzJQ5EH9K08k-21" value="远端同步到本地" style="text;html=1;strokeColor=none;fillColor=none;align=center;verticalAlign=middle;whiteSpace=wrap;rounded=0;" vertex="1" parent="1">
          <mxGeometry x="700" y="1139" width="60" height="30" as="geometry" />
        </mxCell>
      </root>
    </mxGraphModel>
  </diagram>
</mxfile>
